<?xml version="1.0" standalone="no"?>
<!DOCTYPE svg PUBLIC "-//W3C//DTD SVG 20010904//EN"
 "http://www.w3.org/TR/2001/REC-SVG-20010904/DTD/svg10.dtd">
<svg version="1.0" xmlns="http://www.w3.org/2000/svg"
 width="700.000000pt" height="700.000000pt" viewBox="0 0 700.000000 700.000000"
 preserveAspectRatio="xMidYMid meet">
<metadata>
Created by potrace 1.14, written by Peter Selinger 2001-2017
</metadata>
<g transform="translate(0.000000,700.000000) scale(0.100000,-0.100000)"
fill="#000000" stroke="none">
<path d="M3410 6531 c-102 -108 -271 -375 -371 -585 -127 -268 -226 -580 -273
-868 -138 -833 29 -1655 475 -2343 l59 -90 -1564 -5 -1564 -5 -26 -24 c-49
-46 -31 -107 58 -188 187 -171 487 -365 829 -535 l69 -34 -72 -85 c-168 -198
-334 -494 -423 -755 -60 -174 -66 -212 -35 -241 45 -41 259 -84 518 -103 521
-39 1032 95 1467 386 174 116 239 171 449 376 99 98 186 178 191 178 20 0 113
-92 158 -155 l45 -62 2 -514 3 -514 88 -3 87 -3 0 503 0 503 24 52 c15 32 56
85 106 135 l81 83 52 -60 c188 -216 395 -400 608 -538 253 -165 542 -280 853
-338 142 -27 506 -37 682 -19 135 13 306 44 377 66 82 27 85 55 21 244 -97
292 -262 579 -472 828 -30 35 -50 67 -46 72 5 4 34 15 64 25 99 32 340 143
447 207 217 130 453 328 474 398 6 21 9 49 6 62 -14 55 66 53 -1620 58 l-1557
5 86 140 c250 403 400 823 461 1290 26 202 26 724 0 910 -66 463 -195 833
-421 1205 -93 153 -235 351 -269 375 -41 29 -77 19 -127 -34z m220 -389 c197
-295 357 -729 414 -1122 41 -281 45 -627 11 -905 -62 -493 -238 -959 -503
-1327 -30 -43 -58 -78 -62 -78 -11 0 -143 189 -199 283 -199 339 -324 729
-377 1167 -22 182 -21 539 1 724 64 543 234 995 519 1379 l51 69 37 -41 c20
-23 68 -90 108 -149z m-410 -3695 c-547 -436 -1316 -586 -2015 -390 -100 27
-266 93 -373 147 -89 45 -298 185 -336 225 l-30 31 1385 0 c1090 -1 1381 -3
1369 -13z m3250 -28 c-25 -22 -95 -74 -155 -114 -470 -316 -1162 -418 -1765
-261 -258 67 -503 187 -712 349 -43 33 -78 61 -78 63 0 2 620 4 1378 4 l1377
-1 -45 -40z m-3165 -196 c-28 -76 -133 -282 -183 -358 -224 -347 -530 -617
-907 -800 -206 -101 -377 -156 -620 -201 -132 -24 -461 -30 -591 -10 -138 21
-244 46 -244 57 0 25 78 216 132 324 95 189 206 350 340 491 91 96 105 101
232 85 529 -68 1015 8 1458 230 95 47 269 151 342 203 28 19 52 33 54 31 3 -3
-3 -26 -13 -52z m442 3 c129 -89 261 -166 383 -223 358 -168 644 -214 1204
-191 296 12 320 8 391 -54 113 -100 319 -408 409 -613 73 -165 92 -225 75
-236 -20 -12 -171 -46 -262 -58 -114 -16 -369 -13 -495 4 -712 100 -1375 558
-1680 1161 -27 54 -112 251 -112 260 0 9 11 2 87 -50z m-159 -217 c51 -105 92
-196 92 -202 0 -15 -171 -240 -185 -244 -9 -2 -188 226 -188 242 -1 12 178
395 184 395 3 0 47 -86 97 -191z"/>
</g>
</svg>
