<svg width="945" height="945" xmlns="http://www.w3.org/2000/svg" xmlns:xlink="http://www.w3.org/1999/xlink" xml:space="preserve" overflow="hidden"><defs><clipPath id="clip0"><rect x="0" y="0" width="945" height="945"/></clipPath></defs><g clip-path="url(#clip0)"><path d="M1509.96 1062.86C1509.96 1059.93 1515.28 1056.36 1521.72 1054.6 1532.9 1051.68 1533.49 1046.35 1533.49 973.872 1533.49 901.395 1532.9 896.068 1521.72 893.141 1495.79 886.057 1512.3 879.617 1554.16 879.617 1578.33 879.617 1598.36 881.959 1598.36 884.945 1598.36 887.93 1592.44 891.443 1585.42 892.614 1573.07 894.37 1571.89 897.941 1570.08 931.487L1568.32 968.018 1591.33 968.018C1609.6 968.018 1615.51 965.091 1620.78 955.08 1626.11 943.313 1627.28 946.24 1627.28 973.931 1627.28 1001.62 1626.11 1004.55 1620.78 993.367 1615.45 982.771 1609.01 979.844 1591.33 979.844L1568.97 979.844 1568.97 1018.13 1568.97 1056.42 1598.42 1056.42C1623.18 1056.42 1629.03 1054.08 1637.29 1041.67 1650.23 1021.64 1656.72 1023.4 1652.04 1046.41L1647.94 1065.26 1578.98 1067.02C1540.05 1067.54 1509.96 1066.37 1509.96 1062.86Z" fill="#000000" fill-rule="nonzero" fill-opacity="1" transform="matrix(1.00295 0 0 -1 -135.868 1134.04)"/><path d="M581.982 1029.25C497.737 902.566 489.483 728.75 560.789 589.709L584.382 543.753 378.718 543.753C180.139 543.753 172.469 543.167 172.469 532.571 172.469 519.047 202.502 491.298 241.434 469.519 302.143 435.33 298.572 442.999 269.71 399.97 240.848 356.355 220.826 304.544 230.252 295.118 233.764 291.606 256.772 286.278 282.707 282.765 371.693 271.584 465.363 302.787 534.327 367.595 554.935 386.446 574.371 402.37 577.942 402.37 581.455 402.37 588.539 396.457 593.281 389.432 600.364 379.421 602.706 359.984 602.706 306.944 602.706 241.551 603.292 237.394 614.473 237.394 625.655 237.394 626.241 241.492 626.241 307.529 626.241 369.41 627.411 378.835 638.593 392.944L650.946 408.868 690.99 370.581C762.881 302.846 853.624 271.584 945.537 283.351 971.472 286.863 995.592 292.191 999.163 295.704 1008 304.544 979.141 374.679 950.865 411.795L928.501 441.828 967.374 460.094C1013.33 481.287 1056.36 516.647 1056.36 532.571 1056.36 543.167 1049.86 543.753 849.526 543.753 735.834 543.753 643.921 545.509 645.092 548.495 646.262 550.836 656.859 572.088 669.27 595.622 725.823 705.216 729.98 857.839 679.281 967.432 655.103 1019.89 625.655 1062.27 613.302 1062.27 607.916 1062.27 593.749 1047.52 581.982 1029.25ZM636.778 995.709C692.161 903.796 705.743 774.18 670.968 665.172 655.629 616.288 621.499 554.408 611.429 557.335 599.662 560.847 554.876 659.259 546.621 699.947 530.112 780.093 538.367 883.774 567.229 948.581 583.738 985.698 607.858 1026.97 613.185 1026.97 615.586 1026.91 626.182 1012.75 636.778 995.709ZM567.814 512.549C556.047 497.796 504.177 473.676 466.475 464.25 393.998 447.156 319.765 455.996 259.641 489.014 201.917 520.218 201.917 520.218 396.34 520.218 544.28 520.218 573.727 518.989 567.814 512.549ZM1003.85 512.549C980.839 484.858 891.911 455.41 829.445 455.41 771.136 455.41 683.906 484.272 662.128 510.793 655.044 519.633 670.968 520.218 832.431 520.218 980.254 520.218 1009.76 518.989 1003.85 512.549ZM572.556 455.352C546.621 407.053 495.396 359.926 439.369 332.82 396.925 312.798 388.671 311.042 331.532 309.227 297.343 308.642 266.139 309.813 261.982 312.74 255.484 316.838 257.24 325.092 271.993 354.013 282.004 374.035 297.928 399.384 307.939 410.566L325.619 430.588 389.315 430.588C460.035 430.588 507.163 442.355 558.389 473.032 574.898 482.458 588.421 490.712 589.592 490.712 590.822 490.712 583.152 474.847 572.556 455.352ZM743.445 441.243C764.052 435.33 798.827 431.817 838.871 431.817L901.922 431.817 920.773 410.039C931.37 398.272 947.293 372.337 956.719 352.901 977.912 308.115 975.57 306.358 894.838 309.286 840.627 311.042 831.202 313.384 789.343 332.879 733.375 359.984 682.091 407.112 655.571 455.996L637.305 490.771 674.422 470.749C695.088 459.508 725.765 446.512 743.445 441.243ZM628.524 455.352C637.364 432.988 637.364 430.003 627.938 417.064 615 399.384 613.771 399.384 601.418 416.479 591.993 429.417 591.993 432.403 600.833 454.766 606.16 468.29 612.014 478.945 614.356 478.945 616.756 478.945 623.196 468.349 628.524 455.352Z" fill="#000000" fill-rule="nonzero" fill-opacity="1" transform="matrix(1.00295 0 0 -1 -135.868 1134.04)"/><path d="M2807.4 1038.68C2789.72 1023.93 2790.89 1020.41 2812.14 1027.5 2829.24 1034 2834.5 1041.02 2825.08 1046.35 2822.74 1048.11 2815.07 1044.59 2807.4 1038.68Z" fill="#000000" fill-rule="nonzero" fill-opacity="1" transform="matrix(1.00295 0 0 -1 -135.868 1134.04)"/><path d="M1735.64 1002.73C1743.9 997.992 1745.65 988.567 1745.65 950.279 1745.65 900.224 1751.56 888.984 1778.67 881.959 1801.03 876.046 1832.88 884.886 1842.89 899.054 1848.81 907.308 1851.73 925.574 1851.73 953.265 1851.73 978.029 1854.66 998.051 1858.82 1002.15 1864.14 1007.48 1860.57 1009.23 1842.89 1009.23 1824.04 1008.65 1821.11 1007.48 1829.95 1002.73 1843.48 994.48 1844.12 923.759 1830.54 904.323 1819.36 888.399 1792.84 887.228 1779.26 901.981 1764.5 917.905 1765.09 994.48 1779.84 1002.73 1787.51 1007.48 1782.18 1008.65 1757.48 1008.65 1732.77 1008.65 1727.39 1007.48 1735.64 1002.73Z" fill="#000000" fill-rule="nonzero" fill-opacity="1" transform="matrix(1.00295 0 0 -1 -135.868 1134.04)"/><path d="M1930.06 1002.73C1938.32 997.992 1940.08 987.981 1940.08 944.425 1940.08 900.81 1938.32 890.799 1930.06 886.115 1921.22 881.373 1924.15 880.203 1942.42 879.617 1961.27 879.617 1963.61 880.788 1958.34 887.872 1954.24 893.199 1951.84 912.05 1953.01 936.17L1954.77 975.629 1991.89 927.916C2012.49 901.395 2031.34 879.617 2034.92 879.617 2037.84 879.617 2040.24 905.552 2040.24 938.512 2040.24 987.981 2042 998.051 2050.84 1002.73 2058.51 1007.48 2054.94 1008.65 2034.33 1008.65 2013.72 1008.65 2010.15 1007.48 2018.41 1002.73 2026.08 997.992 2028.42 989.211 2028.42 960.876L2028.42 924.988 1994.81 967.432C1964.78 1005.72 1960.04 1009.29 1940.6 1009.29 1923.62 1008.65 1921.22 1007.48 1930.06 1002.73Z" fill="#000000" fill-rule="nonzero" fill-opacity="1" transform="matrix(1.00295 0 0 -1 -135.868 1134.04)"/><path d="M2112.72 1002.73C2120.97 997.992 2122.73 987.981 2122.73 944.425 2122.73 900.81 2120.97 890.799 2112.72 886.115 2104.47 881.373 2113.31 880.203 2145.15 879.617 2212.3 879.617 2240.58 898.468 2240.58 944.425 2240.58 990.382 2212.3 1009.23 2145.15 1009.23 2113.31 1008.65 2104.47 1007.48 2112.72 1002.73ZM2189.94 990.967C2219.39 977.443 2224.13 919.076 2197.61 900.224 2190.52 895.482 2176.42 891.384 2165.82 891.384L2146.38 891.384 2146.38 944.425C2146.38 996.88 2146.38 997.465 2161.14 997.465 2168.75 997.465 2181.68 994.48 2189.94 990.967Z" fill="#000000" fill-rule="nonzero" fill-opacity="1" transform="matrix(1.00295 0 0 -1 -135.868 1134.04)"/><path d="M2323.07 949.752C2308.9 917.319 2293.03 888.457 2288.29 885.53 2281.21 881.432 2284.78 880.203 2301.82 879.617 2318.91 879.617 2323.01 881.373 2318.33 887.286 2314.81 891.384 2314.81 899.639 2317.74 907.894 2321.25 917.905 2327.17 920.832 2343.09 920.832 2367.27 920.832 2381.96 902.566 2369.61 887.813 2363.7 880.729 2367.27 879.559 2390.22 879.559L2417.91 879.559 2406.14 896.068C2400.23 904.908 2386.12 933.77 2375.52 960.876 2364.93 987.396 2354.33 1009.17 2352.51 1009.17 2350.17 1009.23 2337.23 982.712 2323.07 949.752ZM2358.43 940.327C2358.43 936.229 2351.93 932.658 2343.67 932.658 2326.58 932.658 2327.17 931.487 2335.42 956.251L2342.5 975.687 2350.17 961.52C2354.33 953.85 2357.84 943.839 2358.43 940.327Z" fill="#000000" fill-rule="nonzero" fill-opacity="1" transform="matrix(1.00295 0 0 -1 -135.868 1134.04)"/><path d="M2495.13 1000.39C2471.53 990.382 2455.67 957.363 2460.94 929.672 2466.85 900.81 2488.63 883.715 2524.57 881.373 2561.11 878.446 2568.19 882.544 2573.46 906.137L2576.97 923.818 2564.62 907.894C2544.6 882.544 2511.58 886.115 2496.88 915.563 2469.19 968.018 2520.48 1025.16 2558.76 984.527L2570.53 971.589 2570.53 986.927C2570.53 997.524 2566.43 1002.85 2557.59 1005.78 2536.4 1010.99 2516.38 1009.23 2495.13 1000.39Z" fill="#000000" fill-rule="nonzero" fill-opacity="1" transform="matrix(1.00295 0 0 -1 -135.868 1134.04)"/><path d="M2637.15 1002.73C2645.41 997.992 2647.16 987.981 2647.16 944.425 2647.16 900.81 2645.41 890.799 2637.15 886.115 2628.9 881.373 2633.06 880.203 2656 879.617 2678.37 879.617 2683.11 881.373 2677.78 886.701 2673.68 890.799 2670.7 912.636 2670.7 944.425 2670.7 976.214 2673.63 998.051 2677.78 1002.15 2683.11 1007.48 2678.37 1009.23 2656 1009.23 2633 1008.65 2628.9 1007.48 2637.15 1002.73Z" fill="#000000" fill-rule="nonzero" fill-opacity="1" transform="matrix(1.00295 0 0 -1 -135.868 1134.04)"/><path d="M2778.54 1000.98C2758.51 991.552 2741.42 965.032 2741.42 943.254 2741.42 920.246 2762.03 893.199 2786.21 885.53 2831.58 870.192 2876.95 900.283 2876.95 945.069 2876.95 992.138 2825.08 1021.59 2778.54 1000.98ZM2835.09 982.127C2850.43 962.69 2852.18 917.905 2837.43 901.981 2825.08 888.457 2805 888.457 2788.55 901.981 2768.53 917.905 2764.95 967.959 2782.05 985.054 2799.14 1002.15 2820.4 1000.98 2835.09 982.127Z" fill="#000000" fill-rule="nonzero" fill-opacity="1" transform="matrix(1.00295 0 0 -1 -135.868 1134.04)"/><path d="M2937.66 1002.73C2945.91 997.992 2947.67 987.981 2947.67 944.425 2947.67 900.81 2945.91 890.799 2937.66 886.115 2928.82 881.373 2931.74 880.203 2950.01 879.617 2968.86 879.617 2971.2 880.788 2965.93 887.872 2961.84 893.199 2959.44 912.05 2960.61 936.17L2962.36 975.629 2999.48 927.916C3020.09 901.395 3038.94 879.617 3042.51 879.617 3045.44 879.617 3047.84 905.552 3047.84 938.512 3047.84 987.981 3049.59 998.051 3058.43 1002.73 3066.1 1007.48 3062.53 1008.65 3041.92 1008.65 3021.32 1008.65 3017.75 1007.48 3026 1002.73 3033.67 997.992 3036.01 989.211 3036.01 960.876L3036.01 924.988 3002.41 967.432C2972.37 1005.72 2967.63 1009.29 2948.2 1009.29 2931.16 1008.65 2928.82 1007.48 2937.66 1002.73Z" fill="#000000" fill-rule="nonzero" fill-opacity="1" transform="matrix(1.00295 0 0 -1 -135.868 1134.04)"/><path d="M1872.34 779.449C1845.82 752.343 1848.16 743.503 1877.08 761.183 1905.94 778.864 1912.44 788.289 1903.02 795.958 1897.1 801.227 1890.02 797.129 1872.34 779.449Z" fill="#000000" fill-rule="nonzero" fill-opacity="1" transform="matrix(1.00295 0 0 -1 -135.868 1134.04)"/><path d="M2728.48 780.035C2715.54 766.511 2706.12 754.1 2707.87 752.343 2713.79 746.43 2765.01 778.864 2765.01 788.289 2765.01 805.969 2751.43 802.984 2728.48 780.035Z" fill="#000000" fill-rule="nonzero" fill-opacity="1" transform="matrix(1.00295 0 0 -1 -135.868 1134.04)"/><path d="M1256.64 779.449C1256.64 776.522 1260.15 773.536 1264.89 773.536 1268.99 773.536 1274.32 767.623 1276.66 760.598 1281.4 742.918 1280.76 593.866 1276.07 565.589 1271.98 537.898 1258.98 531.4 1244.87 549.666 1233.69 564.419 1221.28 561.433 1221.28 543.753 1221.28 518.989 1275.49 520.745 1294.34 545.509 1305.52 560.847 1306.69 571.444 1308.51 665.699 1310.26 761.769 1311.43 769.38 1322.03 771.78 1345.62 778.278 1331.46 785.303 1294.93 785.303 1273.15 785.362 1256.64 782.962 1256.64 779.449Z" fill="#000000" fill-rule="nonzero" fill-opacity="1" transform="matrix(1.00295 0 0 -1 -135.868 1134.04)"/><path d="M2175.77 780.62C2175.77 777.693 2181.1 773.536 2187.54 771.78 2198.72 768.853 2199.31 763.525 2199.31 685.194 2199.31 606.863 2198.72 601.535 2187.54 598.608 2160.43 591.524 2179.28 585.084 2225.83 585.084 2284.72 585.084 2314.81 595.095 2323.07 617.518 2333.66 645.209 2330.15 660.547 2308.9 677.056L2288.88 692.98 2304.22 705.918C2315.4 715.929 2319.55 724.769 2319.55 740.693 2319.55 776.054 2308.37 781.966 2237.65 784.308 2199.95 785.362 2175.77 784.133 2175.77 780.62ZM2277.11 763.525C2290.05 751.758 2291.28 718.739 2278.28 706.387 2273.54 701.059 2260.02 696.961 2248.83 696.961L2228.81 696.961 2228.81 731.151C2228.81 750.002 2230.57 767.682 2232.91 769.438 2239.99 777.107 2265.93 773.536 2277.11 763.525ZM2280.68 669.855C2299.53 656.917 2298.95 617.986 2279.51 605.633 2271.26 600.306 2257.73 596.793 2248.31 597.964 2232.38 599.72 2231.8 600.891 2230.04 639.823L2228.29 679.281 2247.72 679.281C2258.84 679.281 2273.6 675.183 2280.68 669.855Z" fill="#000000" fill-rule="nonzero" fill-opacity="1" transform="matrix(1.00295 0 0 -1 -135.868 1134.04)"/><path d="M1386.25 689.877C1357.98 619.157 1346.21 596.793 1336.2 596.793 1331.46 596.793 1327.36 594.451 1327.36 590.88 1327.36 587.953 1340.88 584.967 1356.81 584.967 1373.32 584.967 1386.25 587.895 1386.25 590.88 1386.25 594.393 1382.16 596.793 1377.41 596.793 1366.82 596.793 1366.23 602.121 1374.49 622.728 1379.23 636.252 1383.33 638.066 1406.28 638.066 1430.45 638.066 1432.8 636.896 1436.31 619.801 1439.23 606.277 1438.06 599.779 1429.22 593.866 1419.8 586.197 1423.31 585.611 1458.67 585.026 1499.3 585.026 1508.14 589.768 1485.19 599.779 1475.18 603.877 1465.76 622.142 1448.08 670.5 1432.74 711.773 1420.97 735.893 1414.47 737.064 1408.03 738.176 1400.36 725.238 1386.25 689.877ZM1421.61 660.43C1421.61 652.175 1416.87 649.834 1403.35 649.834 1388.01 649.834 1385.67 651.59 1389.18 660.43 1391.52 665.757 1396.26 678.11 1399.78 688.121L1406.28 705.801 1413.36 688.121C1417.46 678.11 1421.03 665.699 1421.61 660.43Z" fill="#000000" fill-rule="nonzero" fill-opacity="1" transform="matrix(1.00295 0 0 -1 -135.868 1134.04)"/><path d="M1504.1 732.907C1504.1 729.98 1508.2 726.409 1512.94 724.067 1520.03 721.725 1521.78 708.728 1521.78 658.674 1521.78 607.39 1520.03 596.793 1512.94 596.793 1508.2 596.793 1504.1 594.451 1504.1 590.88 1504.1 587.309 1520.03 584.967 1539.46 584.967 1573.65 584.967 1586.59 592.051 1563.05 598.491 1553.63 600.833 1551.29 606.746 1551.29 628.524 1551.29 651.531 1553.04 655.629 1562.47 655.629 1578.39 655.629 1590.75 641.462 1595.49 619.098 1601.4 591.993 1609.01 584.909 1631.43 584.909 1653.21 584.909 1658.54 593.749 1640.27 598.432 1633.78 599.603 1627.34 608.443 1625.52 618.454 1623.18 628.465 1616.1 642.047 1609.6 649.073L1597.24 662.011 1612.58 673.778C1623.18 682.033 1627.92 691.458 1627.92 703.225 1627.92 717.978 1624.41 722.662 1607.31 729.746 1585.42 738.761 1504.1 741.747 1504.1 732.907ZM1588.93 716.983C1607.78 698.132 1595.43 667.514 1568.91 667.514 1551.81 667.514 1551.23 668.685 1551.23 692.863 1551.23 707.031 1552.99 720.554 1555.33 722.311 1561.83 729.336 1579.51 726.409 1588.93 716.983Z" fill="#000000" fill-rule="nonzero" fill-opacity="1" transform="matrix(1.00295 0 0 -1 -135.868 1134.04)"/><path d="M1660.82 732.907C1659.07 729.98 1662.58 726.409 1669.08 724.652 1679.67 721.725 1680.84 716.398 1680.84 662.772 1680.84 608.56 1679.67 603.233 1667.91 595.037 1654.97 586.197 1657.31 585.611 1703.27 585.611 1786.34 585.026 1813.45 604.462 1813.45 664.587 1813.45 707.616 1803.43 722.896 1769.83 732.322 1743.31 739.405 1664.92 739.991 1660.82 732.907ZM1769.83 711.07C1794.01 689.292 1788.68 624.484 1761.58 605.575 1754.49 600.833 1740.38 596.735 1729.79 596.735L1710.35 596.735 1710.35 657.444C1710.35 691.048 1712.11 720.496 1715.09 722.837 1721.53 729.98 1757.48 722.311 1769.83 711.07Z" fill="#000000" fill-rule="nonzero" fill-opacity="1" transform="matrix(1.00295 0 0 -1 -135.868 1134.04)"/><path d="M1842.89 732.322C1841.14 729.394 1842.89 726.409 1847.64 726.409 1860.57 726.409 1863.56 712.885 1863.56 654.517 1863.56 606.804 1862.39 601.477 1851.79 598.549 1828.2 592.051 1841.2 585.026 1875.38 585.026 1894.82 585.026 1910.74 587.368 1910.74 590.939 1910.74 594.51 1906.65 596.852 1901.9 596.852 1894.82 596.852 1893.06 607.448 1893.06 658.732 1893.06 708.787 1894.82 721.784 1901.9 724.125 1906.65 726.467 1910.74 730.038 1910.74 732.965 1910.63 739.991 1847.58 739.405 1842.89 732.322Z" fill="#000000" fill-rule="nonzero" fill-opacity="1" transform="matrix(1.00295 0 0 -1 -135.868 1134.04)"/><path d="M1931.88 733.492C1930.12 730.565 1933.64 726.409 1940.13 724.652 1950.73 721.725 1951.9 716.398 1951.9 662.772 1951.9 608.56 1950.73 603.233 1938.96 595.037 1926.02 586.197 1926.61 585.611 1959.57 585.611 1978.42 585.026 1993.17 587.368 1993.17 590.939 1993.17 594.51 1989.08 596.852 1984.33 596.852 1972.57 596.852 1968.41 616.288 1970.81 661.074L1972.57 698.191 2013.84 641.638C2070.39 563.833 2075.72 565.063 2075.72 653.405 2075.72 716.456 2076.31 721.725 2087.49 724.711 2093.99 726.467 2097.5 730.038 2095.74 732.965 2091.64 740.049 2034.45 739.464 2034.45 732.38 2034.45 729.453 2037.96 726.467 2042.7 726.467 2054.47 726.467 2058.04 712.944 2058.04 669.329L2058.04 631.041 2018 682.911C1982.05 730.038 1976.14 735.366 1956.7 737.122 1944.82 738.176 1933.64 736.42 1931.88 733.492Z" fill="#000000" fill-rule="nonzero" fill-opacity="1" transform="matrix(1.00295 0 0 -1 -135.868 1134.04)"/><path d="M2386.7 728.75C2350.17 709.314 2339.58 642.164 2367.85 609.146 2390.22 582.626 2422.06 574.956 2455.08 587.368 2486.29 599.135 2499.28 617.4 2503.38 654.517 2506.89 687.536 2493.37 719.325 2470.36 730.507 2450.34 740.576 2406.14 739.991 2386.7 728.75ZM2458.6 714.641C2475.1 698.132 2475.69 628.055 2459.77 607.975 2446.24 591.466 2416.74 590.295 2400.23 605.048 2377.22 625.655 2377.22 692.278 2400.23 715.227 2414.98 729.98 2443.9 729.336 2458.6 714.641Z" fill="#000000" fill-rule="nonzero" fill-opacity="1" transform="matrix(1.00295 0 0 -1 -135.868 1134.04)"/><path d="M2527.56 734.663C2521.65 728.75 2522.23 685.194 2528.73 685.194 2531.66 685.194 2535.23 693.449 2537.57 702.874 2540.5 717.627 2543.48 720.554 2558.76 720.554L2577.03 720.554 2575.27 660.43C2573.52 602.706 2572.93 599.72 2560.52 597.964 2530.49 593.866 2549.34 585.026 2588.21 585.026 2627.67 585.026 2643.01 592.11 2617.66 598.549 2607.06 601.477 2605.89 606.804 2605.89 661.015L2605.89 720.554 2621.23 720.554C2632.41 720.554 2637.74 716.456 2643.01 702.874 2652.43 677.525 2660.1 681.096 2657.76 710.543L2656 735.307 2593.54 737.064C2559.35 737.59 2529.9 736.42 2527.56 734.663Z" fill="#000000" fill-rule="nonzero" fill-opacity="1" transform="matrix(1.00295 0 0 -1 -135.868 1134.04)"/><path d="M2716.07 719.325C2711.97 708.728 2699.56 678.052 2688.38 651.59 2676.03 621.557 2664.2 601.535 2657.76 599.135 2637.15 592.637 2647.16 584.967 2676.61 584.967 2693.12 584.967 2706.06 587.895 2706.06 590.88 2706.06 594.393 2701.96 596.793 2697.22 596.793 2687.21 596.793 2685.45 610.317 2694.29 626.826 2699.03 635.081 2706.64 638.008 2726.08 638.008 2747.86 638.008 2752.6 635.666 2755.53 625.07 2760.86 603.877 2759.63 596.793 2750.2 596.793 2745.46 596.793 2741.36 594.451 2741.36 590.88 2741.36 587.309 2767.88 584.967 2809.1 584.967 2846.21 584.967 2876.83 586.724 2876.83 588.48 2876.83 590.822 2872.73 595.564 2867.99 599.076 2860.32 604.404 2859.15 615.586 2860.32 649.775L2862.08 693.39 2902.71 639.179C2924.49 609.146 2946.32 584.967 2951.01 584.967 2957.5 584.967 2959.26 597.905 2959.26 649.775 2959.26 708.084 2960.43 715.168 2971.03 721.667 2989.88 733.434 2985.2 738.176 2953.35 738.176 2922.73 738.176 2917.99 735.249 2933.33 724.008 2939.82 718.681 2941.58 708.084 2940.41 677.466L2938.65 637.422 2901.54 687.477C2865.59 735.776 2863.25 738.176 2840.83 738.176 2815.48 738.176 2811.96 732.848 2829.64 721.667 2839.66 715.168 2841.41 708.143 2841.41 665.113 2841.41 604.404 2839.07 596.793 2817.82 596.793 2796.04 596.793 2792.47 602.706 2765.36 673.954 2740.25 741.162 2729.07 751.173 2716.07 719.325ZM2740.83 657.503C2741.42 652.761 2734.34 649.834 2723.74 649.834 2703.13 649.834 2703.13 648.663 2716.07 680.452L2726.08 705.216 2733.17 684.609C2737.32 673.368 2740.83 661.015 2740.83 657.503Z" fill="#000000" fill-rule="nonzero" fill-opacity="1" transform="matrix(1.00295 0 0 -1 -135.868 1134.04)"/><path d="M3003.64 732.322C3001.88 729.394 3003.64 726.409 3008.38 726.409 3021.32 726.409 3024.3 713.47 3024.3 661.601 3024.3 610.317 3021.38 596.793 3008.96 596.793 3004.22 596.793 3000.71 594.451 3000.71 590.88 3000.71 587.309 3016.63 584.967 3036.07 584.967 3055.51 584.967 3071.43 587.309 3071.43 590.88 3071.43 594.451 3067.92 596.793 3063.18 596.793 3052.58 596.793 3047.84 615.644 3047.84 661.601 3047.84 707.558 3052.58 726.409 3063.18 726.409 3067.92 726.409 3071.43 729.336 3071.43 732.322 3071.43 735.834 3057.26 738.234 3039.64 738.234 3022.02 738.234 3005.39 735.834 3003.64 732.322Z" fill="#000000" fill-rule="nonzero" fill-opacity="1" transform="matrix(1.00295 0 0 -1 -135.868 1134.04)"/><path d="M3131.5 726.409C3093.79 703.401 3083.2 636.837 3113.23 605.048 3129.74 587.368 3165.1 577.357 3193.96 582.684 3222.24 588.012 3230.49 594.451 3230.49 614.473 3230.49 638.652 3223.41 640.408 3212.81 619.215 3205.14 602.706 3200.46 599.193 3181.02 598.023 3153.33 595.681 3138.58 607.448 3130.32 639.296 3122.07 667.572 3131.5 704.689 3149.76 717.686 3165.1 728.282 3197.47 729.453 3205.73 719.442 3208.66 715.344 3212.23 706.504 3213.4 700.591 3214.57 694.093 3219.31 688.238 3223.41 686.423 3234.59 682.911 3232.83 730.038 3221.07 734.722 3200.4 742.918 3150.93 738.176 3131.5 726.409Z" fill="#000000" fill-rule="nonzero" fill-opacity="1" transform="matrix(1.00295 0 0 -1 -135.868 1134.04)"/><path d="M3295.89 730.565C3257.01 711.129 3242.85 646.321 3269.37 610.375 3287.63 586.197 3323.58 575.6 3355.37 586.197 3390.14 596.793 3407.24 623.313 3407.24 665.757 3407.24 694.619 3404.89 700.532 3387.21 718.213 3370.12 735.307 3363.04 738.234 3338.92 738.234 3322.99 738.176 3303.55 734.663 3295.89 730.565ZM3363.62 714.056C3380.72 695.205 3379.54 625.655 3361.86 607.975 3344.18 590.295 3314.74 590.295 3299.98 607.975 3284.06 627.997 3285.23 689.877 3301.74 711.07 3317.08 730.565 3347.11 732.322 3363.62 714.056Z" fill="#000000" fill-rule="nonzero" fill-opacity="1" transform="matrix(1.00295 0 0 -1 -135.868 1134.04)"/><path d="M1248.97 421.806C1234.8 405.297 1230.12 379.362 1240.71 375.264 1254.88 369.937 1263.72 377.606 1257.22 389.432 1254.3 395.345 1254.3 404.77 1257.22 413.025 1264.31 431.232 1261.32 434.745 1248.97 421.806Z" fill="#000000" fill-rule="nonzero" fill-opacity="1" transform="matrix(1.00295 0 0 -1 -135.868 1134.04)"/><path d="M1277.83 417.064C1263.66 395.872 1265.48 372.864 1280.76 372.864 1291.35 372.864 1292.52 375.206 1289.01 390.544 1286.67 401.141 1287.84 411.737 1291.94 417.064 1295.45 421.806 1296.04 426.49 1293.11 428.246 1289.6 430.061 1283.16 425.319 1277.83 417.064Z" fill="#000000" fill-rule="nonzero" fill-opacity="1" transform="matrix(1.00295 0 0 -1 -135.868 1134.04)"/><path d="M1359.15 423.563C1307.28 401.199 1294.34 323.395 1335.55 285.107 1351.48 270.354 1386.84 263.329 1418.04 269.183 1438.06 273.281 1439.23 274.511 1439.23 297.46 1439.23 312.213 1443.33 326.322 1449.25 332.82 1458.09 342.831 1457.5 343.417 1428.64 343.417 1411.54 343.417 1398.02 341.075 1398.02 337.504 1398.02 334.577 1402.12 331.591 1407.45 331.591 1414.53 331.591 1415.7 326.263 1414.53 306.827 1412.77 282.648 1412.19 281.477 1392.17 279.721 1354.46 276.794 1332.04 317.423 1341.47 370.464 1347.38 400.497 1368.57 419.933 1395.09 419.933 1413.94 419.933 1417.46 417.591 1423.37 402.253 1432.21 378.66 1439.29 379.889 1439.29 404.595 1439.29 419.933 1436.37 425.202 1426.36 428.188 1405.1 433.574 1378.58 431.817 1359.15 423.563Z" fill="#000000" fill-rule="nonzero" fill-opacity="1" transform="matrix(1.00295 0 0 -1 -135.868 1134.04)"/><path d="M2766.18 424.734C2762.09 420.636 2759.1 414.137 2759.1 409.395 2759.1 402.311 2760.86 402.311 2767.94 408.224 2775.02 414.137 2779.12 414.137 2783.86 409.395 2793.87 399.384 2816.3 400.555 2820.4 411.737 2826.89 428.246 2823.91 431.759 2812.14 424.675 2803.3 418.762 2799.2 418.762 2793.29 424.675 2784.45 433.574 2775.02 433.574 2766.18 424.734Z" fill="#000000" fill-rule="nonzero" fill-opacity="1" transform="matrix(1.00295 0 0 -1 -135.868 1134.04)"/><path d="M3341.26 428.246C3341.26 425.319 3340.09 415.308 3339.5 405.239 3338.92 395.813 3336.57 382.231 3334.17 375.791 3330.66 366.951 3333.59 368.122 3344.77 380.533 3353.02 389.373 3360.11 401.726 3360.11 407.639 3360.11 418.821 3343.01 437.086 3341.26 428.246Z" fill="#000000" fill-rule="nonzero" fill-opacity="1" transform="matrix(1.00295 0 0 -1 -135.868 1134.04)"/><path d="M2531.07 419.465C2539.33 414.137 2541.08 404.126 2541.08 348.744 2541.08 296.874 2539.33 283.351 2532.24 281.009 2513.98 273.925 2524.57 266.842 2552.27 266.842 2582.3 266.842 2597.05 275.096 2576.44 280.365 2567.02 282.707 2564.68 288.62 2564.68 309.813L2564.68 335.747 2588.86 339.26C2620.64 343.358 2637.74 360.453 2637.74 388.144 2637.74 419.348 2625.39 425.846 2568.19 425.846 2532.83 425.319 2523.4 424.148 2531.07 419.465ZM2598.87 410.625C2607.71 404.712 2611.8 395.872 2611.8 382.348 2611.8 359.34 2602.96 349.329 2581.19 349.329 2565.26 349.329 2564.68 350.5 2564.68 380.533 2564.68 422.392 2572.35 429.476 2598.87 410.625Z" fill="#000000" fill-rule="nonzero" fill-opacity="1" transform="matrix(1.00295 0 0 -1 -135.868 1134.04)"/><path d="M3368.36 397.042C3367.78 364.609 3374.28 363.438 3387.21 394.701 3396.64 416.479 3394.3 425.904 3378.96 425.904 3370.7 425.904 3368.95 420.05 3368.36 397.042Z" fill="#000000" fill-rule="nonzero" fill-opacity="1" transform="matrix(1.00295 0 0 -1 -135.868 1134.04)"/><path d="M1468.74 385.275C1468.74 382.348 1472.84 378.777 1477.58 376.435 1484.08 374.093 1486.42 362.912 1486.42 329.308 1486.42 290.435 1488.18 283.936 1499.36 276.267 1512.88 266.256 1549.41 263.914 1560.65 271.525 1574.18 280.365 1580.68 302.143 1580.68 337.504 1580.68 364.024 1583.02 374.035 1589.52 376.377 1606.03 382.875 1598.36 390.544 1574.76 390.544 1550.58 390.544 1543.56 382.875 1560.6 376.377 1568.27 373.449 1570.02 365.195 1567.68 331.005 1565.34 287.976 1560.01 278.55 1536.48 278.55 1529.39 278.55 1521.14 281.477 1517.04 285.634 1508.2 294.474 1507.03 378.718 1515.87 378.718 1519.38 378.718 1521.78 381.646 1521.78 384.631 1521.78 388.144 1510.01 390.544 1495.26 390.544 1480.51 390.544 1468.74 388.202 1468.74 385.275Z" fill="#000000" fill-rule="nonzero" fill-opacity="1" transform="matrix(1.00295 0 0 -1 -135.868 1134.04)"/><path d="M1616.04 384.69C1616.04 381.763 1618.96 378.777 1621.95 378.777 1625.46 378.777 1627.86 358.17 1627.86 328.722 1627.86 287.449 1626.11 278.667 1618.44 278.667 1613.69 278.667 1611.35 276.326 1613.11 272.754 1617.85 265.671 1661.41 265.085 1665.56 272.169 1667.32 275.096 1664.98 278.667 1660.24 281.009 1647.3 285.751 1647.3 371.752 1660.24 376.435 1677.92 383.519 1668.49 390.603 1642.56 390.603 1627.8 390.544 1616.04 388.202 1616.04 384.69Z" fill="#000000" fill-rule="nonzero" fill-opacity="1" transform="matrix(1.00295 0 0 -1 -135.868 1134.04)"/><path d="M1686.76 385.275C1686.76 382.348 1690.86 378.777 1695.6 376.435 1702.68 374.093 1704.44 362.912 1704.44 328.722 1704.44 294.533 1702.68 283.351 1695.6 281.009 1674.99 272.754 1689.68 266.842 1729.79 266.842 1775.74 266.842 1786.93 272.169 1786.93 294.533 1786.93 311.627 1779.84 312.213 1772.17 295.118 1768.07 285.693 1760.41 280.951 1747.41 279.78L1727.97 278.023 1727.97 328.078C1727.97 358.111 1730.31 378.777 1733.88 378.777 1737.4 378.777 1739.8 381.704 1739.8 384.69 1739.8 388.202 1728.03 390.603 1713.28 390.603 1698.52 390.544 1686.76 388.202 1686.76 385.275Z" fill="#000000" fill-rule="nonzero" fill-opacity="1" transform="matrix(1.00295 0 0 -1 -135.868 1134.04)"/><path d="M1798.69 385.275C1798.69 382.348 1802.79 378.777 1807.53 376.435 1814.62 374.093 1816.37 362.912 1816.37 328.722 1816.37 294.533 1814.62 283.351 1807.53 281.009 1787.51 272.754 1801.03 266.842 1839.32 266.842 1891.19 266.842 1898.86 269.769 1898.86 291.02 1898.86 311.627 1892.36 313.384 1884.11 295.118 1880.01 285.107 1873.51 281.595 1860.51 281.595L1842.83 281.595 1841.08 330.478C1839.91 361.097 1841.66 378.777 1845.82 378.777 1848.75 378.777 1851.73 381.704 1851.73 384.69 1851.73 388.202 1839.97 390.603 1825.21 390.603 1810.46 390.603 1798.69 388.202 1798.69 385.275Z" fill="#000000" fill-rule="nonzero" fill-opacity="1" transform="matrix(1.00295 0 0 -1 -135.868 1134.04)"/><path d="M1910.63 384.69C1910.63 381.763 1914.73 378.777 1919.47 378.777 1932.41 378.777 1932.41 285.693 1919.47 280.951 1900.62 273.281 1918.88 266.783 1956.58 266.783 2003.71 266.783 2012.55 271.525 2009.62 293.889 2007.28 309.227 2006.7 309.813 2001.96 299.216 1995.46 283.292 1987.2 278.609 1968.35 278.609 1953.01 278.609 1951.84 280.365 1951.84 302.202 1951.84 322.224 1953.6 325.795 1963.61 325.795 1970.69 325.795 1977.78 319.882 1981.29 312.857 1985.39 302.26 1986.62 305.188 1986.62 328.781 1986.62 351.788 1985.45 355.886 1980.7 348.217 1977.78 342.304 1969.52 337.621 1963.61 337.621 1954.18 337.621 1951.84 341.719 1951.84 358.228 1951.84 378.25 1953.01 378.835 1973.04 378.835 1988.96 378.835 1994.81 375.908 1997.21 367.068 2001.96 349.388 2011.97 352.901 2009.57 371.81 2007.81 387.734 2007.22 387.734 1959.51 389.49 1928.31 390.544 1910.63 388.788 1910.63 384.69Z" fill="#000000" fill-rule="nonzero" fill-opacity="1" transform="matrix(1.00295 0 0 -1 -135.868 1134.04)"/><path d="M2034.39 384.69C2034.39 381.763 2037.32 378.777 2040.3 378.777 2043.81 378.777 2046.21 358.17 2046.21 328.722 2046.21 299.275 2043.87 278.667 2040.3 278.667 2037.37 278.667 2034.39 276.326 2034.39 272.754 2034.39 269.827 2046.16 266.842 2060.91 266.842 2086.84 266.842 2096.27 273.925 2078.59 281.009 2067.41 285.107 2066.24 325.795 2077.42 325.795 2090.94 325.795 2098.61 316.955 2106.28 293.362 2112.19 274.511 2116.88 269.183 2130.46 268.012 2139.3 266.842 2146.38 268.598 2146.38 272.111 2146.38 275.623 2144.04 278.609 2141.06 278.609 2138.07 278.609 2132.22 288.034 2128.7 299.802 2124.6 310.983 2117.52 322.165 2113.36 323.98 2106.28 326.322 2106.87 328.722 2116.88 335.747 2134.56 348.1 2132.8 377.606 2113.36 384.631 2093.87 392.359 2034.39 392.359 2034.39 384.69ZM2103.88 361.682C2105.64 352.842 2102.12 344.002 2095.63 339.319 2076.77 325.795 2069.69 329.893 2069.69 355.828 2069.69 378.191 2070.28 379.421 2086.2 377.606 2098.03 376.435 2102.71 372.279 2103.88 361.682Z" fill="#000000" fill-rule="nonzero" fill-opacity="1" transform="matrix(1.00295 0 0 -1 -135.868 1134.04)"/><path d="M2152.24 385.275C2152.24 382.348 2156.34 378.777 2161.08 376.435 2168.16 374.093 2169.92 362.912 2169.92 328.722 2169.92 294.533 2168.16 283.351 2161.08 281.009 2144.57 274.511 2152.24 266.842 2175.83 266.842 2201.77 266.842 2204.11 269.183 2190.58 282.18 2184.67 288.093 2181.74 302.787 2181.74 324.624L2182.33 358.228 2206.51 311.101 2230.69 263.973 2253.05 311.101 2274.83 358.228 2275.41 321.111C2276 293.42 2273.66 283.409 2267.16 281.068 2262.42 278.726 2260.07 275.155 2261.83 272.228 2265.93 265.144 2311.3 265.729 2311.3 272.813 2311.3 276.326 2308.96 278.726 2305.39 278.726 2301.87 278.726 2299.47 299.333 2299.47 328.781 2299.47 358.228 2301.82 378.835 2305.39 378.835 2308.9 378.835 2311.3 381.763 2311.3 384.748 2311.3 388.261 2303.05 390.661 2293.03 390.661 2276.53 390.661 2273.6 387.734 2257.09 349.388 2247.08 327.024 2237.07 308.115 2235.31 308.115 2233.55 308.115 2223.54 326.966 2212.95 349.388 2195.27 389.432 2193.51 390.661 2173.49 390.661 2161.66 390.544 2152.24 388.202 2152.24 385.275Z" fill="#000000" fill-rule="nonzero" fill-opacity="1" transform="matrix(1.00295 0 0 -1 -135.868 1134.04)"/><path d="M2351.99 373.508C2337.82 359.34 2334.89 351.144 2334.89 328.722 2334.89 306.358 2337.82 298.104 2351.99 283.936 2376.17 259.758 2411.53 259.758 2435.65 283.936 2449.81 298.689 2452.74 305.715 2452.74 331.649 2452.74 372.279 2435.65 390.544 2396.77 390.544 2374.35 390.544 2366.1 387.617 2351.99 373.508ZM2422.06 364.024C2439.74 325.151 2424.41 278.609 2393.79 278.609 2372.01 278.609 2358.43 297.46 2358.43 328.664 2358.43 361.097 2371.37 378.718 2396.13 378.718 2410.88 378.777 2416.8 375.264 2422.06 364.024Z" fill="#000000" fill-rule="nonzero" fill-opacity="1" transform="matrix(1.00295 0 0 -1 -135.868 1134.04)"/><path d="M2653.02 385.275C2653.02 382.348 2657.12 378.777 2661.86 376.435 2668.94 374.093 2670.7 362.912 2670.7 328.722 2670.7 294.533 2668.94 283.351 2661.86 281.009 2644.18 273.925 2653.6 266.842 2679.54 266.842 2694.29 266.842 2706.06 269.769 2706.06 272.754 2706.06 276.267 2703.72 278.667 2700.15 278.667 2696.58 278.667 2694.23 299.275 2694.23 328.722 2694.23 358.17 2696.58 378.777 2700.15 378.777 2703.72 378.777 2706.06 381.704 2706.06 384.69 2706.06 388.202 2694.29 390.603 2679.54 390.603 2664.79 390.603 2653.02 388.202 2653.02 385.275Z" fill="#000000" fill-rule="nonzero" fill-opacity="1" transform="matrix(1.00295 0 0 -1 -135.868 1134.04)"/><path d="M2723.74 385.861C2723.74 382.348 2727.84 378.777 2732.58 376.435 2739.66 374.093 2741.42 362.912 2741.42 328.722 2741.42 294.533 2739.66 283.351 2732.58 281.009 2716.07 274.511 2723.74 266.842 2747.33 266.842 2773.27 266.842 2775.61 269.183 2762.09 282.18 2753.83 290.435 2748.56 355.242 2756.17 355.242 2757.34 355.242 2773.85 335.22 2792.12 311.042 2810.38 286.863 2827.48 266.842 2830.41 266.842 2833.33 266.842 2835.73 291.02 2835.73 319.882 2835.73 361.741 2837.49 374.093 2844.57 376.435 2861.08 382.933 2853.41 390.603 2829.82 390.603 2806.23 390.603 2798.62 382.933 2815.07 376.435 2821.57 374.093 2823.91 364.082 2823.91 339.904L2823.91 306.885 2792.7 346.929C2767.35 380.533 2758.51 388.202 2742.65 389.373 2731.99 390.544 2723.74 388.788 2723.74 385.861Z" fill="#000000" fill-rule="nonzero" fill-opacity="1" transform="matrix(1.00295 0 0 -1 -135.868 1134.04)"/><path d="M2871.04 384.69C2871.04 381.763 2873.96 378.777 2876.95 378.777 2880.46 378.777 2882.86 358.17 2882.86 328.722 2882.86 299.275 2880.52 278.667 2876.95 278.667 2874.02 278.667 2871.04 276.326 2871.04 272.754 2871.04 263.914 2955.28 265.085 2964.12 273.925 2972.37 282.18 2973.55 308.115 2965.88 308.115 2962.95 308.115 2958.21 302.787 2956.45 296.348 2952.35 283.995 2929.93 275.155 2915.18 281.009 2909.85 282.765 2906.34 291.606 2906.34 305.188 2906.34 322.282 2908.68 325.795 2918.1 325.795 2924.6 325.795 2931.63 321.697 2933.44 316.955 2939.94 300.446 2947.61 308.115 2947.61 331.708 2947.61 344.646 2945.27 355.301 2941.7 355.301 2938.77 355.301 2935.78 351.203 2935.78 346.461 2935.78 341.133 2929.87 337.621 2920.45 337.621 2906.92 337.621 2905.69 339.377 2907.51 357.057 2909.26 373.566 2911.61 375.908 2928.7 377.665 2944.62 379.421 2948.72 377.079 2954.64 362.912 2961.13 346.988 2961.72 346.988 2964.06 359.984 2968.16 387.09 2962.89 390.603 2915.18 390.603 2889.89 390.544 2871.04 388.202 2871.04 384.69Z" fill="#000000" fill-rule="nonzero" fill-opacity="1" transform="matrix(1.00295 0 0 -1 -135.868 1134.04)"/><path d="M2988.88 385.275C2988.88 382.348 2992.98 378.777 2997.72 376.435 3004.81 374.093 3006.56 362.912 3006.56 328.722 3006.56 294.533 3004.81 283.351 2997.72 281.009 2980.04 273.925 2989.47 266.842 3015.4 266.842 3030.16 266.842 3041.92 269.769 3041.92 272.754 3041.92 276.267 3039.58 278.667 3036.01 278.667 3033.08 278.667 3030.1 289.264 3030.1 302.26 3030.1 339.963 3053.69 332.293 3062.53 291.664 3065.46 278.726 3070.79 271.642 3080.21 269.3 3100.82 263.973 3110.24 272.228 3095.55 282.824 3088.47 287.566 3083.2 295.762 3083.2 301.675 3083.2 307.588 3079.1 315.843 3074.36 319.941 3067.27 325.853 3067.86 329.366 3078.46 343.534 3092.62 362.97 3089.64 376.552 3068.44 384.807 3049.01 391.774 2988.88 392.359 2988.88 385.275ZM3058.43 371.693C3067.86 362.268 3067.27 352.257 3056.09 341.075 3039.58 324.566 3030.16 329.308 3030.16 355.242 3030.16 374.093 3032.5 378.835 3040.75 378.835 3046.67 378.777 3054.28 375.85 3058.43 371.693Z" fill="#000000" fill-rule="nonzero" fill-opacity="1" transform="matrix(1.00295 0 0 -1 -135.868 1134.04)"/><path d="M3112.64 385.275C3112.64 382.348 3116.74 378.777 3121.48 376.435 3128.57 374.093 3130.32 362.912 3130.32 328.722 3130.32 294.533 3128.57 283.351 3121.48 281.009 3101.46 272.754 3114.99 266.842 3153.27 266.842 3206.31 266.842 3212.81 269.769 3212.81 292.776L3212.23 311.042 3200.46 295.118C3192.21 283.351 3182.78 278.609 3171.01 278.609 3155.09 278.609 3153.92 279.78 3153.92 302.202 3153.92 321.638 3155.67 325.795 3165.68 325.795 3172.18 325.795 3177.45 321.697 3177.45 316.955 3177.45 312.213 3180.38 308.115 3183.37 308.115 3186.88 308.115 3189.28 319.297 3189.28 333.464 3188.69 355.242 3188.11 357.057 3181.02 348.217 3167.5 329.952 3153.92 335.279 3153.92 358.228 3153.92 377.079 3155.09 378.835 3171.6 378.835 3182.78 378.835 3191.62 374.737 3196.36 367.068 3206.96 350.559 3214.04 352.315 3211.7 371.81 3209.94 387.734 3209.36 387.734 3161.65 389.49 3133.84 390.544 3112.64 388.788 3112.64 385.275Z" fill="#000000" fill-rule="nonzero" fill-opacity="1" transform="matrix(1.00295 0 0 -1 -135.868 1134.04)"/><path d="M3247.59 383.519C3223.99 364.668 3231.66 337.562 3265.27 320.467 3278.21 313.384 3290.03 305.715 3291.79 302.787 3298.87 291.606 3287.69 278.609 3270.59 278.609 3257.07 278.609 3251.74 282.121 3245.83 296.289 3237.58 316.311 3230.49 313.969 3230.49 289.791 3230.49 272.111 3239.33 266.783 3268.19 266.783 3294.13 266.783 3312.98 281.536 3312.98 301.558 3312.98 319.238 3302.97 331.005 3272.94 345.758 3247.59 358.696 3249.34 375.206 3275.86 377.547 3292.37 379.304 3295.3 376.962 3298.87 364.024 3303.61 345.173 3314.8 353.428 3311.81 373.449 3310.05 385.802 3306.48 387.617 3283.53 389.373 3268.19 390.544 3252.86 387.617 3247.59 383.519Z" fill="#000000" fill-rule="nonzero" fill-opacity="1" transform="matrix(1.00295 0 0 -1 -135.868 1134.04)"/></g></svg>