<?xml version="1.0" standalone="no"?>
<!DOCTYPE svg PUBLIC "-//W3C//DTD SVG 20010904//EN"
 "http://www.w3.org/TR/2001/REC-SVG-20010904/DTD/svg10.dtd">
<svg version="1.0" xmlns="http://www.w3.org/2000/svg"
 width="612.000000pt" height="226.000000pt" viewBox="0 0 612.000000 226.000000"
 preserveAspectRatio="xMidYMid meet">

<g transform="translate(0.000000,226.000000) scale(0.100000,-0.100000)"
fill="#000000" stroke="none">
<path d="M2600 1811 c0 -5 9 -11 20 -14 19 -5 20 -14 20 -137 0 -123 -1 -132
-20 -137 -44 -12 -16 -23 55 -23 41 0 75 4 75 9 0 5 -10 11 -22 13 -21 3 -23
9 -26 66 l-3 62 39 0 c31 0 41 -5 50 -22 9 -20 11 -15 11 32 0 47 -2 52 -11
33 -9 -18 -20 -23 -50 -23 l-38 0 0 65 0 65 50 0 c42 0 52 -4 66 -25 22 -34
33 -31 25 8 l-7 32 -117 3 c-66 1 -117 -1 -117 -7z"/>
<path d="M1025 1754 c-143 -215 -157 -510 -36 -746 l40 -78 -349 0 c-337 0
-350 -1 -350 -19 0 -23 51 -70 117 -107 103 -58 97 -45 48 -118 -49 -74 -83
-162 -67 -178 6 -6 45 -15 89 -21 151 -19 310 34 427 144 35 32 68 59 74 59 6
0 18 -10 26 -22 12 -17 16 -50 16 -140 0 -111 1 -118 20 -118 19 0 20 7 20
119 0 105 2 121 21 145 l21 27 68 -65 c122 -115 276 -168 432 -148 44 6 85 15
91 21 15 15 -34 134 -82 197 l-38 51 66 31 c78 36 151 96 151 123 0 18 -11 19
-351 19 -193 0 -349 3 -347 8 2 4 20 40 41 80 96 186 103 445 17 631 -41 89
-91 161 -112 161 -9 0 -33 -25 -53 -56z m93 -57 c94 -156 117 -376 58 -561
-26 -83 -84 -188 -101 -183 -20 6 -96 173 -110 242 -28 136 -14 312 35 422 28
63 69 133 78 133 4 0 22 -24 40 -53z m-117 -820 c-20 -25 -108 -66 -172 -82
-123 -29 -249 -14 -351 42 -98 53 -98 53 232 53 251 0 301 -2 291 -13z m740 0
c-39 -47 -190 -97 -296 -97 -99 0 -247 49 -284 94 -12 15 15 16 289 16 251 0
301 -2 291 -13z m-732 -97 c-44 -82 -131 -162 -226 -208 -72 -34 -86 -37 -183
-40 -58 -1 -111 1 -118 6 -11 7 -8 21 17 70 17 34 44 77 61 96 l30 34 108 0
c120 0 200 20 287 72 28 16 51 30 53 30 2 0 -11 -27 -29 -60z m290 -24 c35
-10 94 -16 162 -16 l107 0 32 -37 c18 -20 45 -64 61 -97 36 -76 32 -79 -105
-74 -92 3 -108 7 -179 40 -95 46 -182 126 -227 209 l-31 59 63 -34 c35 -19 87
-41 117 -50z m-195 24 c15 -38 15 -43 -1 -65 -22 -30 -24 -30 -45 -1 -16 22
-16 27 -1 65 9 23 19 41 23 41 4 0 15 -18 24 -40z"/>
<path d="M4802 1770 c-30 -25 -28 -31 8 -19 29 11 38 23 22 32 -4 3 -17 -3
-30 -13z"/>
<path d="M2983 1709 c14 -8 17 -24 17 -89 0 -85 10 -104 56 -116 38 -10 92 5
109 29 10 14 15 45 15 92 0 42 5 76 12 83 9 9 3 12 -27 12 -32 -1 -37 -3 -22
-11 23 -14 24 -134 1 -167 -19 -27 -64 -29 -87 -4 -25 27 -24 157 1 171 13 8
4 10 -38 10 -42 0 -51 -2 -37 -10z"/>
<path d="M3313 1709 c14 -8 17 -25 17 -99 0 -74 -3 -91 -17 -99 -15 -8 -10
-10 21 -11 32 0 36 2 27 14 -7 9 -11 41 -9 82 l3 67 63 -81 c35 -45 67 -82 73
-82 5 0 9 44 9 100 0 84 3 101 18 109 13 8 7 10 -28 10 -35 0 -41 -2 -27 -10
13 -8 17 -23 17 -71 l0 -61 -57 72 c-51 65 -59 71 -92 71 -29 -1 -33 -3 -18
-11z"/>
<path d="M3623 1709 c14 -8 17 -25 17 -99 0 -74 -3 -91 -17 -99 -14 -8 1 -10
55 -11 114 0 162 32 162 110 0 78 -48 110 -162 110 -54 -1 -69 -3 -55 -11z
m131 -20 c50 -23 58 -122 13 -154 -12 -8 -36 -15 -54 -15 l-33 0 0 90 c0 89 0
90 25 90 13 0 35 -5 49 -11z"/>
<path d="M3980 1619 c-24 -55 -51 -104 -59 -109 -12 -7 -6 -9 23 -10 29 0 36
3 28 13 -6 7 -6 21 -1 35 6 17 16 22 43 22 41 0 66 -31 45 -56 -10 -12 -4 -14
35 -14 l47 0 -20 28 c-10 15 -34 64 -52 110 -18 45 -36 82 -39 82 -4 0 -26
-45 -50 -101z m60 -16 c0 -7 -11 -13 -25 -13 -29 0 -28 -2 -14 40 l12 33 13
-24 c7 -13 13 -30 14 -36z"/>
<path d="M4272 1705 c-40 -17 -67 -73 -58 -120 10 -49 47 -78 108 -82 62 -5
74 2 83 42 l6 30 -21 -27 c-34 -43 -90 -37 -115 13 -47 89 40 186 105 117 l20
-22 0 26 c0 18 -7 27 -22 32 -36 9 -70 6 -106 -9z"/>
<path d="M4513 1709 c14 -8 17 -25 17 -99 0 -74 -3 -91 -17 -99 -14 -8 -7 -10
32 -11 38 0 46 3 37 12 -7 7 -12 44 -12 98 0 54 5 91 12 98 9 9 1 12 -37 12
-39 -1 -46 -3 -32 -11z"/>
<path d="M4753 1706 c-34 -16 -63 -61 -63 -98 0 -39 35 -85 76 -98 77 -26 154
25 154 101 0 80 -88 130 -167 95z m96 -32 c26 -33 29 -109 4 -136 -21 -23 -55
-23 -83 0 -34 27 -40 112 -11 141 29 29 65 27 90 -5z"/>
<path d="M5023 1709 c14 -8 17 -25 17 -99 0 -74 -3 -91 -17 -99 -15 -8 -10
-10 21 -11 32 0 36 2 27 14 -7 9 -11 41 -9 82 l3 67 63 -81 c35 -45 67 -82 73
-82 5 0 9 44 9 100 0 84 3 101 18 109 13 8 7 10 -28 10 -35 0 -41 -2 -27 -10
13 -8 17 -23 17 -71 l0 -61 -57 72 c-51 65 -59 71 -92 71 -29 -1 -33 -3 -18
-11z"/>
<path d="M3215 1330 c-45 -46 -41 -61 8 -31 49 30 60 46 44 59 -10 9 -22 2
-52 -28z"/>
<path d="M4668 1331 c-22 -23 -38 -44 -35 -47 10 -10 97 45 97 61 0 30 -23 25
-62 -14z"/>
<path d="M2170 1330 c0 -5 6 -10 14 -10 7 0 16 -10 20 -22 8 -30 7 -283 -1
-331 -7 -47 -29 -58 -53 -27 -19 25 -40 20 -40 -10 0 -42 92 -39 124 3 19 26
21 44 24 204 3 163 5 176 23 180 40 11 16 23 -46 23 -37 0 -65 -4 -65 -10z"/>
<path d="M3730 1332 c0 -5 9 -12 20 -15 19 -5 20 -14 20 -147 0 -133 -1 -142
-20 -147 -46 -12 -14 -23 65 -23 100 0 151 17 165 55 18 47 12 73 -24 101
l-34 27 26 22 c19 17 26 32 26 59 0 60 -19 70 -139 74 -64 2 -105 0 -105 -6z
m172 -29 c22 -20 24 -76 2 -97 -8 -9 -31 -16 -50 -16 l-34 0 0 58 c0 32 3 62
7 65 12 13 56 7 75 -10z m6 -159 c32 -22 31 -88 -2 -109 -14 -9 -37 -15 -53
-13 -27 3 -28 5 -31 71 l-3 67 33 0 c19 0 44 -7 56 -16z"/>
<path d="M2390 1178 c-48 -120 -68 -158 -85 -158 -8 0 -15 -4 -15 -10 0 -5 23
-10 50 -10 28 0 50 5 50 10 0 6 -7 10 -15 10 -18 0 -19 9 -5 44 8 23 15 26 54
26 41 0 45 -2 51 -31 5 -23 3 -34 -12 -44 -16 -13 -10 -14 50 -15 69 0 84 8
45 25 -17 7 -33 38 -63 120 -26 70 -46 111 -57 113 -11 2 -24 -20 -48 -80z
m60 -50 c0 -14 -8 -18 -31 -18 -26 0 -30 3 -24 18 4 9 12 30 18 47 l11 30 12
-30 c7 -17 13 -38 14 -47z"/>
<path d="M2590 1251 c0 -5 7 -11 15 -15 12 -4 15 -26 15 -111 0 -87 -3 -105
-15 -105 -8 0 -15 -4 -15 -10 0 -6 27 -10 60 -10 58 0 80 12 40 23 -16 4 -20
14 -20 51 0 39 3 46 19 46 27 0 48 -24 56 -62 10 -46 23 -58 61 -58 37 0 46
15 15 23 -11 2 -22 17 -25 34 -4 17 -16 40 -27 52 l-21 22 26 20 c18 14 26 30
26 50 0 25 -6 33 -35 45 -37 15 -175 20 -175 5z m144 -27 c32 -32 11 -84 -34
-84 -29 0 -30 2 -30 43 0 24 3 47 7 50 11 12 41 7 57 -9z"/>
<path d="M2856 1251 c-3 -5 3 -11 14 -14 18 -5 20 -14 20 -105 0 -92 -2 -101
-22 -115 -22 -15 -18 -16 60 -16 141 -1 187 32 187 134 0 73 -17 99 -74 115
-45 12 -178 13 -185 1z m185 -37 c41 -37 32 -147 -14 -179 -12 -8 -36 -15 -54
-15 l-33 0 0 103 c0 57 3 107 8 111 11 12 72 -1 93 -20z"/>
<path d="M3165 1250 c-3 -5 0 -10 8 -10 22 0 27 -23 27 -122 0 -81 -2 -90 -20
-95 -40 -11 -18 -23 40 -23 33 0 60 4 60 10 0 6 -7 10 -15 10 -12 0 -15 18
-15 105 0 85 3 107 15 111 8 4 15 10 15 15 0 12 -107 11 -115 -1z"/>
<path d="M3316 1252 c-3 -5 3 -12 14 -15 18 -5 20 -14 20 -105 0 -92 -2 -101
-22 -115 -22 -15 -21 -16 35 -16 32 -1 57 3 57 9 0 6 -7 10 -15 10 -20 0 -27
33 -23 109 l3 63 70 -96 c96 -132 105 -130 105 20 0 107 1 116 20 121 11 3 17
9 14 14 -7 12 -104 11 -104 -1 0 -5 6 -10 14 -10 20 0 26 -23 26 -97 l0 -65
-68 88 c-61 80 -71 89 -104 92 -20 2 -39 -1 -42 -6z"/>
<path d="M4088 1244 c-62 -33 -80 -147 -32 -203 38 -45 92 -58 148 -37 53 20
75 51 82 114 6 56 -17 110 -56 129 -34 17 -109 16 -142 -3z m122 -24 c28 -28
29 -147 2 -181 -23 -28 -73 -30 -101 -5 -39 35 -39 148 0 187 25 25 74 24 99
-1z"/>
<path d="M4327 1254 c-10 -10 -9 -84 2 -84 5 0 11 14 15 30 5 25 10 30 36 30
l31 0 -3 -102 c-3 -98 -4 -103 -25 -106 -51 -7 -19 -22 47 -22 67 0 93 12 50
23 -18 5 -20 14 -20 106 l0 101 26 0 c19 0 28 -7 37 -30 16 -43 29 -37 25 13
l-3 42 -106 3 c-58 1 -108 -1 -112 -4z"/>
<path d="M4647 1228 c-7 -18 -28 -70 -47 -115 -21 -51 -41 -85 -52 -89 -35
-11 -18 -24 32 -24 28 0 50 5 50 10 0 6 -7 10 -15 10 -17 0 -20 23 -5 51 8 14
21 19 54 19 37 0 45 -4 50 -22 9 -36 7 -48 -9 -48 -8 0 -15 -4 -15 -10 0 -6
45 -10 115 -10 63 0 115 3 115 6 0 4 -7 12 -15 18 -13 9 -15 28 -13 86 l3 74
69 -92 c37 -51 74 -92 82 -92 11 0 14 22 14 110 0 99 2 111 20 122 32 20 24
28 -30 28 -52 0 -60 -5 -34 -24 11 -9 14 -27 12 -79 l-3 -68 -63 85 c-61 82
-65 86 -103 86 -43 0 -49 -9 -19 -28 17 -11 20 -23 20 -96 0 -103 -4 -116 -40
-116 -37 0 -43 10 -89 131 -43 114 -62 131 -84 77z m42 -105 c1 -8 -11 -13
-29 -13 -35 0 -35 -2 -13 52 l17 42 12 -35 c7 -19 13 -40 13 -46z"/>
<path d="M5135 1250 c-3 -5 0 -10 8 -10 22 0 27 -22 27 -110 0 -87 -5 -110
-26 -110 -8 0 -14 -4 -14 -10 0 -6 27 -10 60 -10 33 0 60 4 60 10 0 6 -6 10
-14 10 -18 0 -26 32 -26 110 0 78 8 110 26 110 8 0 14 5 14 10 0 6 -24 10 -54
10 -30 0 -58 -4 -61 -10z"/>
<path d="M5352 1240 c-64 -39 -82 -152 -31 -206 28 -30 88 -47 137 -38 48 9
62 20 62 54 0 41 -12 44 -30 8 -13 -28 -21 -34 -54 -36 -47 -4 -72 16 -86 70
-14 48 2 111 33 133 26 18 81 20 95 3 5 -7 11 -22 13 -32 2 -11 10 -21 17 -24
19 -6 16 74 -4 82 -35 14 -119 6 -152 -14z"/>
<path d="M5631 1247 c-66 -33 -90 -143 -45 -204 31 -41 92 -59 146 -41 59 18
88 63 88 135 0 49 -4 59 -34 89 -29 29 -41 34 -82 34 -27 0 -60 -6 -73 -13z
m115 -28 c29 -32 27 -150 -3 -180 -30 -30 -80 -30 -105 0 -27 34 -25 139 3
175 26 33 77 36 105 5z"/>
<path d="M2157 723 c-24 -28 -32 -72 -14 -79 24 -9 39 4 28 24 -5 10 -5 26 0
40 12 31 7 37 -14 15z"/>
<path d="M2206 715 c-24 -36 -21 -75 5 -75 18 0 20 4 14 30 -4 18 -2 36 5 45
6 8 7 16 2 19 -6 3 -17 -5 -26 -19z"/>
<path d="M2344 726 c-88 -38 -110 -170 -40 -235 27 -25 87 -37 140 -27 34 7
36 9 36 48 0 25 7 49 17 60 15 17 14 18 -35 18 -29 0 -52 -4 -52 -10 0 -5 7
-10 16 -10 12 0 14 -9 12 -42 -3 -41 -4 -43 -38 -46 -64 -5 -102 64 -86 154
10 51 46 84 91 84 32 0 38 -4 48 -30 15 -40 27 -38 27 4 0 26 -5 35 -22 40
-36 9 -81 6 -114 -8z"/>
<path d="M4732 728 c-7 -7 -12 -18 -12 -26 0 -12 3 -12 15 -2 12 10 19 10 27
2 17 -17 55 -15 62 4 11 28 6 34 -14 22 -15 -10 -22 -10 -32 0 -15 15 -31 15
-46 0z"/>
<path d="M5708 734 c0 -5 -2 -22 -3 -39 -1 -16 -5 -39 -9 -50 -6 -15 -1 -13
18 8 14 15 26 36 26 46 0 19 -29 50 -32 35z"/>
<path d="M4333 719 c14 -9 17 -26 17 -120 0 -88 -3 -111 -15 -115 -31 -12 -13
-24 34 -24 51 0 76 14 41 23 -16 4 -20 14 -20 50 l0 44 41 6 c54 7 83 36 83
83 0 53 -21 64 -118 64 -60 -1 -76 -3 -63 -11z m115 -15 c15 -10 22 -25 22
-48 0 -39 -15 -56 -52 -56 -27 0 -28 2 -28 53 0 71 13 83 58 51z"/>
<path d="M5754 681 c-1 -55 10 -57 32 -4 16 37 12 53 -14 53 -14 0 -17 -10
-18 -49z"/>
<path d="M2530 661 c0 -5 7 -11 15 -15 11 -4 15 -23 15 -80 0 -66 3 -77 22
-90 23 -17 85 -21 104 -8 23 15 34 52 34 112 0 45 4 62 15 66 28 11 15 24 -25
24 -41 0 -53 -13 -24 -24 13 -5 16 -19 12 -77 -4 -73 -13 -89 -53 -89 -12 0
-26 5 -33 12 -15 15 -17 158 -2 158 6 0 10 5 10 10 0 6 -20 10 -45 10 -25 0
-45 -4 -45 -9z"/>
<path d="M2780 660 c0 -5 5 -10 10 -10 6 0 10 -35 10 -85 0 -70 -3 -85 -16
-85 -8 0 -12 -4 -9 -10 8 -12 82 -13 89 -1 3 5 -1 11 -9 15 -22 8 -22 154 0
162 30 12 14 24 -30 24 -25 0 -45 -4 -45 -10z"/>
<path d="M2900 661 c0 -5 7 -11 15 -15 12 -4 15 -23 15 -81 0 -58 -3 -77 -15
-81 -35 -14 -10 -24 58 -24 78 0 97 9 97 47 0 29 -12 30 -25 1 -7 -16 -20 -24
-42 -26 l-33 -3 0 85 c0 51 4 86 10 86 6 0 10 5 10 10 0 6 -20 10 -45 10 -25
0 -45 -4 -45 -9z"/>
<path d="M3090 661 c0 -5 7 -11 15 -15 12 -4 15 -23 15 -81 0 -58 -3 -77 -15
-81 -34 -14 -11 -24 54 -24 88 0 101 5 101 41 0 35 -11 38 -25 7 -7 -17 -18
-23 -40 -23 l-30 0 -3 83 c-2 52 1 82 8 82 5 0 10 5 10 10 0 6 -20 10 -45 10
-25 0 -45 -4 -45 -9z"/>
<path d="M3280 660 c0 -5 7 -10 15 -10 22 0 22 -158 0 -166 -32 -13 -1 -24 63
-24 80 0 95 8 90 46 -4 26 -5 27 -13 9 -11 -27 -25 -35 -57 -35 -26 0 -28 3
-28 40 0 34 3 40 20 40 12 0 24 -10 30 -22 7 -18 9 -13 9 27 0 39 -2 46 -10
33 -5 -10 -19 -18 -29 -18 -16 0 -20 7 -20 35 0 34 2 35 36 35 27 0 37 -5 41
-20 8 -30 25 -24 21 8 -3 27 -4 27 -85 30 -53 2 -83 -1 -83 -8z"/>
<path d="M3490 660 c0 -5 5 -10 10 -10 6 0 10 -35 10 -85 0 -50 -4 -85 -10
-85 -5 0 -10 -4 -10 -10 0 -5 20 -10 45 -10 44 0 60 12 30 24 -19 7 -21 76 -2
76 23 0 36 -15 49 -55 10 -32 18 -41 41 -43 15 -2 27 1 27 7 0 6 -4 11 -9 11
-5 0 -15 16 -21 36 -7 19 -19 38 -26 41 -12 4 -11 8 6 20 30 21 27 71 -6 83
-33 13 -134 13 -134 0z m118 -39 c3 -15 -3 -30 -14 -38 -32 -23 -44 -16 -44
28 0 38 1 40 28 37 20 -2 28 -9 30 -27z"/>
<path d="M3690 661 c0 -5 7 -11 15 -15 12 -4 15 -23 15 -81 0 -58 -3 -77 -15
-81 -28 -11 -15 -24 25 -24 44 0 48 4 25 26 -10 10 -15 35 -15 72 l1 57 41
-80 41 -80 38 80 37 80 1 -63 c1 -47 -3 -64 -14 -68 -8 -4 -12 -10 -9 -15 7
-12 84 -11 84 1 0 6 -4 10 -10 10 -6 0 -10 35 -10 85 0 50 4 85 10 85 6 0 10
5 10 10 0 6 -14 10 -31 10 -28 0 -33 -5 -61 -70 -17 -38 -34 -70 -37 -70 -3 0
-20 32 -38 70 -30 68 -33 70 -67 70 -20 0 -36 -4 -36 -9z"/>
<path d="M4029 641 c-24 -24 -29 -38 -29 -76 0 -38 5 -52 29 -76 41 -41 101
-41 142 0 24 25 29 37 29 81 0 69 -29 100 -95 100 -38 0 -52 -5 -76 -29z m119
-16 c30 -66 4 -145 -48 -145 -37 0 -60 32 -60 85 0 55 22 85 64 85 25 0 35 -6
44 -25z"/>
<path d="M4540 661 c0 -5 7 -11 15 -15 12 -4 15 -23 15 -81 0 -58 -3 -77 -15
-81 -30 -12 -14 -24 30 -24 25 0 45 5 45 10 0 6 -4 10 -10 10 -6 0 -10 35 -10
85 0 50 4 85 10 85 6 0 10 5 10 10 0 6 -20 10 -45 10 -25 0 -45 -4 -45 -9z"/>
<path d="M4660 662 c0 -6 7 -12 15 -16 12 -4 15 -23 15 -81 0 -58 -3 -77 -15
-81 -28 -11 -15 -24 25 -24 44 0 48 4 25 26 -14 14 -23 124 -10 124 2 0 30
-34 61 -75 31 -41 60 -75 65 -75 5 0 9 41 9 90 0 71 3 92 15 96 28 11 15 24
-25 24 -40 0 -53 -13 -25 -24 11 -4 15 -21 15 -62 l0 -56 -53 68 c-43 57 -58
70 -85 72 -18 2 -32 -1 -32 -6z"/>
<path d="M4910 660 c0 -5 5 -10 10 -10 6 0 10 -35 10 -85 0 -50 -4 -85 -10
-85 -5 0 -10 -4 -10 -10 0 -15 143 -13 158 2 14 14 16 58 3 58 -5 0 -13 -9
-16 -20 -7 -21 -45 -36 -70 -26 -9 3 -15 18 -15 41 0 29 4 35 20 35 11 0 23
-7 26 -15 11 -28 24 -15 24 25 0 22 -4 40 -10 40 -5 0 -10 -7 -10 -15 0 -9
-10 -15 -26 -15 -23 0 -25 3 -22 33 3 28 7 32 36 35 27 3 34 -1 44 -25 11 -27
12 -27 16 -5 7 46 -2 52 -83 52 -43 0 -75 -4 -75 -10z"/>
<path d="M5110 661 c0 -5 7 -11 15 -15 12 -4 15 -23 15 -81 0 -58 -3 -77 -15
-81 -30 -12 -14 -24 30 -24 25 0 45 5 45 10 0 6 -4 10 -10 10 -5 0 -10 18 -10
40 0 64 40 51 55 -18 5 -22 14 -34 30 -38 35 -9 51 5 26 23 -12 8 -21 22 -21
32 0 10 -7 24 -15 31 -12 10 -11 16 7 40 24 33 19 56 -17 70 -33 12 -135 13
-135 1z m118 -23 c16 -16 15 -33 -4 -52 -28 -28 -44 -20 -44 24 0 32 4 40 18
40 10 0 23 -5 30 -12z"/>
<path d="M5320 661 c0 -5 7 -11 15 -15 12 -4 15 -23 15 -81 0 -58 -3 -77 -15
-81 -34 -14 -11 -24 54 -24 90 0 101 5 101 44 l-1 31 -20 -27 c-14 -20 -30
-28 -50 -28 -27 0 -29 2 -29 40 0 33 3 40 20 40 11 0 20 -7 20 -15 0 -8 5 -15
10 -15 6 0 10 19 10 43 -1 37 -2 40 -14 25 -23 -31 -46 -22 -46 17 0 32 2 35
30 35 19 0 34 -7 42 -20 18 -28 30 -25 26 8 -3 27 -4 27 -85 30 -47 2 -83 -1
-83 -7z"/>
<path d="M5549 658 c-40 -32 -27 -78 30 -107 22 -12 42 -25 45 -30 12 -19 -7
-41 -36 -41 -23 0 -32 6 -42 30 -14 34 -26 30 -26 -11 0 -30 15 -39 64 -39 44
0 76 25 76 59 0 30 -17 50 -68 75 -43 22 -40 50 5 54 28 3 33 -1 39 -23 8 -32
27 -18 22 16 -3 21 -9 24 -48 27 -26 2 -52 -3 -61 -10z"/>
</g>
</svg>
